<svg width="529" height="483" viewBox="0 0 529 483" fill="none" xmlns="http://www.w3.org/2000/svg">
<path fill-rule="evenodd" clip-rule="evenodd" d="M27.6632 250.133C27.3825 198.964 -13.9663 144.944 12.4995 101.15C39.013 57.2779 103.654 63.0904 151.623 45.014C193.568 29.2075 230.794 4.32081 275.559 2.01963C330.237 -0.791159 388.44 -0.947464 433.231 30.5376C482.361 65.072 520.421 119.329 527.312 178.984C534.134 238.029 501.888 293.259 469.327 342.985C439.343 388.776 398.899 425.285 349.97 449.816C300.66 474.538 246.922 484.302 191.805 482.121C129.246 479.645 50.5007 487.641 14.339 436.533C-22.5426 384.406 28.0134 313.986 27.6632 250.133Z" fill="#E74040"/>
</svg>
