<svg width="537" height="515" viewBox="0 0 537 515" fill="none" xmlns="http://www.w3.org/2000/svg">
<path fill-rule="evenodd" clip-rule="evenodd" d="M288.815 0.426343C340.647 2.05872 379.31 44.3496 420.535 75.8096C460.647 106.42 505.446 133.826 524.723 180.456C544.859 229.163 535.439 282.565 527.552 334.678C518.058 397.413 531.521 484.883 474.453 512.616C414.31 541.842 354.962 460.479 288.815 450.693C238.074 443.186 187.231 481.044 139.21 463.02C84.2042 442.373 33.6791 401.682 12.3696 346.929C-9.41651 290.952 -0.859337 225.474 25.811 171.652C50.5265 121.775 104.276 97.6894 150.925 67.3186C194.812 38.7469 236.473 -1.22209 288.815 0.426343Z" fill="#AF2F31"/>
</svg>
