<svg width="163" height="63" viewBox="0 0 163 63" fill="none" xmlns="http://www.w3.org/2000/svg">
<path fill-rule="evenodd" clip-rule="evenodd" d="M51.6655 11.4355C51.5817 17.7251 51.5132 27.3706 51.5132 32.8697C51.5132 43.6188 51.4282 44.6873 50.2427 48.8332C49.1669 52.5968 47.4048 55.768 45.073 58.1378C43.1863 60.0551 42.4652 60.4939 37.433 62.785C37.0009 62.9817 50.2236 63.0315 90.0604 62.9824L143.265 62.9169L145.342 62.3138C149.636 61.0672 152.811 59.2209 155.747 56.2628C159.921 52.0592 162.305 46.8321 162.778 40.8461C162.894 39.3824 162.991 29.6196 162.994 19.1512L163 0.117563L107.409 0.0587814L51.8178 0L51.6655 11.4355ZM19.1981 0.926385C15.2021 1.73683 11.3043 3.76571 8.25095 6.62448C4.56173 10.0789 2.34099 13.827 0.795642 19.2081L0.197583 21.2909L0.0987917 42.0611L0 62.8313H14.6516C30.6718 62.8313 30.9728 62.8107 35.0016 61.4453C42.0624 59.0524 46.2576 54.3001 48.4719 46.186L49.0764 43.9703L49.1516 22.2744L49.2269 0.578557L34.9626 0.600311C24.1638 0.616742 20.334 0.695888 19.1981 0.926385ZM78.7501 5.42224C81.5371 5.57335 82.6228 5.72887 83.6625 6.1253C88.0963 7.81654 89.746 11.8421 88.2637 17.3549C87.7468 19.2771 85.9511 21.1308 83.885 21.875L82.4414 22.395L83.5387 22.9115C85.5058 23.8377 85.7546 24.273 87.571 29.9692C88.9529 34.3031 89.1182 34.5977 90.1661 34.5977C91.079 34.5977 92.1666 34.968 92.418 35.3644C92.6578 35.7423 92.6373 36.9566 92.3843 37.3572C91.8991 38.1257 86.2654 38.1607 85.5845 37.3991C85.4017 37.1947 84.5592 34.7886 83.7123 32.0521C82.0232 26.5956 81.4646 25.3989 80.2574 24.6507C79.1725 23.9786 75.7734 23.5855 73.4412 23.8625L71.7101 24.068L71.6477 29.0142C71.608 32.1661 71.6717 34.0647 71.8234 34.2483C71.9545 34.4063 72.8076 34.5894 73.7196 34.6549C75.6797 34.7953 76.3516 35.3295 76.1116 36.5562C75.8658 37.8119 75.7257 37.8376 69.1401 37.8376C63.1399 37.8376 63.0769 37.8325 62.7212 37.3232C62.2196 36.6053 62.2734 35.6757 62.8467 35.1543C63.2017 34.8312 63.8012 34.6824 65.0878 34.5977C66.7211 34.4901 66.8552 34.4415 67.0036 33.9034C67.2118 33.1478 67.2118 10.1275 67.0034 9.37262C66.8547 8.83387 66.7192 8.78527 65.0331 8.66493C63.5103 8.55616 63.154 8.45087 62.792 8.00283C62.2025 7.27269 62.2526 6.45253 62.9284 5.77516L63.4949 5.20701L69.3337 5.21766C72.5449 5.22344 76.7824 5.31555 78.7501 5.42224ZM123.376 5.65505C123.754 6.03389 123.956 8.88663 123.975 14.1045L123.991 18.7207L124.662 17.8073C126.129 15.8101 129.024 14.4549 131.793 14.4679C133.084 14.4741 135.541 15.0515 136.818 15.649C140.472 17.359 142.677 21.9891 142.371 27.3079C142.149 31.1558 141.333 33.3964 139.412 35.4331C137.284 37.6888 134.537 38.6918 131.147 38.4518C128.332 38.2526 127.145 37.7781 125.603 36.2376C124.892 35.5266 124.16 34.7037 123.977 34.4089C123.666 33.9067 123.643 33.9662 123.614 35.3568C123.563 37.8554 123.59 37.8376 119.845 37.8376C116.248 37.8376 115.912 37.709 115.912 36.3299C115.912 35.3392 116.59 34.8291 117.907 34.8291C119.763 34.8291 119.606 36.0409 119.602 21.7868C119.6 14.768 119.522 8.90931 119.429 8.76722C119.336 8.62513 118.668 8.46082 117.946 8.40227C116.377 8.27475 115.912 7.94474 115.912 6.95865C115.912 6.05379 116.305 5.50833 117.067 5.35489C118.098 5.14684 123.107 5.38521 123.376 5.65505ZM147.388 8.30322C148.975 8.96786 149.695 11.0361 148.79 12.3309C148.01 13.448 146.262 13.8689 145.277 13.177C143.587 11.9907 143.749 9.23955 145.561 8.34302C146.432 7.91234 146.454 7.91188 147.388 8.30322ZM71.8716 8.95606C71.672 9.15624 71.5946 10.7387 71.5946 14.6178C71.5946 19.9348 71.6009 20.0051 72.1045 20.2754C72.4681 20.4705 73.5806 20.5071 75.9796 20.4029C80.9307 20.1882 82.548 19.5552 83.7647 17.3567C84.3058 16.3792 84.4052 15.9293 84.4052 14.4577C84.4052 11.3203 82.8684 9.3754 80.0196 8.90816C77.9983 8.57653 72.2162 8.61055 71.8716 8.95606ZM11.3063 14.0071C12.2903 14.6086 12.8069 15.8411 12.8069 17.5881C12.8069 20.498 10.961 22.7951 8.62304 22.7951C6.07246 22.7951 4.71592 19.0697 6.18787 16.1082C7.33574 13.7986 9.50708 12.9071 11.3063 14.0071ZM41.2924 14.2258C43.1196 15.3426 44.1954 18.0332 43.6788 20.193C42.9561 23.2133 40.093 23.8865 37.9383 21.5429C37.0397 20.5656 36.2771 18.754 36.2803 17.6039C36.2831 16.5692 36.8241 15.2596 37.5491 14.5327C38.2012 13.8789 38.4706 13.7699 39.4296 13.7706C40.1346 13.771 40.8243 13.9395 41.2924 14.2258ZM96.5555 15.6004L97.1004 16.0429L97.2168 24.1052C97.3167 31.0157 97.3878 32.267 97.7142 32.862C98.1398 33.6373 98.9218 34.4077 99.6819 34.8002C100.297 35.1175 103.658 35.1453 104.46 34.8395C105.514 34.4376 106.833 33.0101 107.512 31.5341L108.18 30.085L108.252 24.357L108.325 18.6293L107.693 18.3886C107.346 18.256 106.913 18.2051 106.73 18.2752C106.191 18.4826 104.629 17.9549 104.375 17.4798C104.013 16.8013 104.095 16.1295 104.602 15.621C105.016 15.2063 105.369 15.1584 108.007 15.1614C111.503 15.1651 111.877 15.2445 112.19 16.048C112.335 16.4215 112.455 20.1366 112.497 25.5229C112.573 35.4058 112.463 34.8192 114.239 34.8257L115.22 34.8291V36.3001V37.771L113.431 37.9179C111.516 38.0753 109.353 37.8332 108.935 37.4148C108.795 37.2739 108.619 36.4521 108.545 35.5889L108.411 34.0191L107.778 35.099C106.998 36.428 105.593 37.6636 104.435 38.0383C102.29 38.7318 98.3896 38.5715 96.7572 37.7226C95.7813 37.2151 94.4716 35.7888 93.8212 34.5253L93.203 33.3249L93.0744 25.996C93.0036 21.9653 92.8819 18.6034 92.8039 18.5254C92.7259 18.4474 92.1027 18.3224 91.419 18.2477C89.7134 18.0609 89.1371 17.6624 89.1371 16.6703C89.1371 15.3665 89.6814 15.1582 93.0869 15.1582C95.6216 15.1582 96.0832 15.217 96.5555 15.6004ZM149.183 15.6004L149.728 16.0425L149.796 25.1353C149.836 30.5855 149.954 34.3369 150.089 34.4996C150.212 34.6488 150.848 34.8227 151.502 34.8856C152.814 35.012 153.305 35.4405 153.305 36.4574C153.305 36.7953 153.113 37.2461 152.878 37.4593C152.502 37.8011 151.857 37.8395 147.405 37.7844L142.359 37.7219L142.026 37.1274C141.3 35.8298 142.226 34.8291 144.153 34.8291C144.693 34.8291 145.259 34.7042 145.411 34.5514C145.616 34.3466 145.688 32.2589 145.688 26.5956C145.688 17.8691 145.811 18.3882 143.705 18.2132C142.761 18.1348 142.357 17.9857 142.103 17.6231C141.632 16.9492 141.68 16.1681 142.226 15.621C142.64 15.2061 142.995 15.1582 145.663 15.1582C148.247 15.1582 148.709 15.2163 149.183 15.6004ZM128.031 18.4847C124.983 19.9232 123.59 22.8037 123.819 27.1919C124.013 30.9183 125.372 33.4128 127.876 34.6398C129.524 35.4475 132.193 35.397 133.968 34.5246C135.547 33.7488 136.726 32.4406 137.432 30.6818C137.872 29.5853 137.951 28.9545 137.953 26.4979C137.956 23.7051 137.93 23.5496 137.197 21.9993C135.831 19.1067 133.988 17.9332 130.817 17.9376C129.587 17.9392 128.9 18.0741 128.031 18.4847ZM4.79417 21.9062C5.78508 23.8534 6.58419 25.1068 7.17786 25.6447L8.07114 26.4535L10.8791 25.0293L13.6873 23.6051L15.9235 23.6063C17.9016 23.6072 18.2949 23.6789 19.3348 24.2279C19.9811 24.5692 21.0472 25.438 21.7039 26.1584C22.9485 27.5236 24.1922 29.4363 23.9764 29.6529C23.9076 29.7219 23.1461 29.1951 22.2842 28.4824C19.5875 26.2521 17.7442 25.6451 15.86 26.3665C15.2959 26.5826 14.5254 27.1119 14.1482 27.5426C13.335 28.471 12.1426 30.9035 11.9272 32.0722C11.5494 34.1254 13.1206 38.197 15.5114 41.3613C16.1582 42.2173 18.2651 44.441 20.1934 46.3031C22.4866 48.5173 23.4995 49.6332 23.1221 49.5293C21.6922 49.1355 17.7511 46.9869 15.9493 45.6188C12.0057 42.6246 8.07506 37.7932 6.16617 33.5933C4.30021 29.4879 2.95406 24.2665 2.67915 20.0681C2.55543 18.1755 2.57043 18.0794 2.9252 18.5138C3.13317 18.7684 3.97429 20.2949 4.79417 21.9062ZM46.7506 19.4974C46.0796 27.4148 43.7197 34.1286 39.7537 39.4027C37.912 41.8521 34.4986 45.0999 32.0609 46.7224C30.1146 48.0179 25.6692 50.1771 25.4303 49.9431C25.3668 49.8811 25.8342 49.4046 26.469 48.8844C28.5531 47.1762 33.4133 42.1481 34.3943 40.6851C35.7134 38.718 36.9019 36.2862 37.2096 34.9245C37.7414 32.5707 36.9155 29.7452 35.1269 27.7999C33.988 26.5611 32.9505 26.1586 31.3763 26.3456C29.9784 26.5116 28.68 27.2512 26.532 29.1049L24.8973 30.5152L25.6771 29.0274C26.785 26.9128 29.1269 24.6016 30.6859 24.0844C33.2969 23.2177 36.215 23.7599 39.4114 25.7053C40.7966 26.5484 41.2079 26.7018 41.5673 26.509C42.2027 26.1679 43.8787 23.5459 45.3094 20.6545C45.9864 19.2863 46.613 18.1667 46.7019 18.1667C46.7908 18.1667 46.8127 18.7656 46.7506 19.4974ZM29.1006 31.2303C29.4563 31.4147 30.0747 31.9394 30.4747 32.3959C32.9013 35.167 32.2331 38.5819 28.5252 42.3592C27.5213 43.382 26.3783 44.4447 25.9854 44.7211L25.2713 45.2235L23.806 44.3654C20.6761 42.5325 17.5824 38.5995 17.5824 36.4533C17.5824 34.4882 18.8893 32.24 20.4683 31.4885C21.5934 30.9535 22.6057 31.3087 23.7862 32.6533L24.6921 33.6852L25.193 32.8724C26.2754 31.1169 27.715 30.5117 29.1006 31.2303ZM68.8248 40.9225C69.6742 41.3303 69.5348 41.6161 68.3054 41.9861L67.209 42.3163V44.4739V46.6317H70.6714H74.1337V44.4468V42.262L73.1527 42.0673C72.316 41.9014 72.1717 41.7889 72.1717 41.3016V40.7304L75.1147 40.6656L78.0576 40.6008V41.2724C78.0576 41.8727 77.9632 41.9593 77.1694 42.0865L76.281 42.2289L76.1358 44.4471C76.0557 45.6671 76.056 48.1109 76.1361 49.8779L76.2819 53.0905L76.9966 53.2434C77.7477 53.404 78.2885 53.7389 78.2885 54.043C78.2885 54.4177 76.7678 54.7315 74.9649 54.7282C72.8099 54.7248 72.0563 54.572 72.0563 54.139C72.0563 53.7167 72.9701 53.1115 73.6081 53.1115C74.1201 53.1115 74.1337 53.0511 74.1337 50.7973V48.4831H70.6714H67.209V50.7973C67.209 52.7216 67.2686 53.1115 67.5627 53.1115C67.7572 53.1115 68.3024 53.2749 68.7745 53.4744L69.6327 53.8373L69.0877 54.2844C68.6316 54.6588 68.1743 54.7315 66.2791 54.7315C63.6373 54.7315 63.2851 54.6357 63.2851 53.9171C63.2851 53.4751 63.4434 53.3568 64.2084 53.2272L65.1316 53.0708V47.6775C65.1316 41.8262 65.1718 42.0032 63.8432 42.0032C63.379 42.0032 63.2851 41.8882 63.2851 41.3205C63.2851 40.6545 63.3176 40.6355 64.6123 40.5437C66.3541 40.4203 68.1067 40.5779 68.8248 40.9225ZM113.055 40.9713C113.362 41.4423 113.387 41.6728 113.18 42.1284C112.813 42.9359 111.623 42.9301 111.254 42.1189C110.617 40.7181 112.221 39.6959 113.055 40.9713ZM135.301 46.9767L135.417 53.2231L136.107 53.3427C136.856 53.4725 137.185 54.1874 136.651 54.5267C136.48 54.6354 134.777 54.7259 132.866 54.728C129.241 54.7317 128.838 54.6306 128.838 53.7162C128.838 53.2897 128.792 53.2994 128.204 53.85C127.272 54.7213 126.685 54.9629 125.499 54.9629C124.25 54.9629 123.134 54.5366 122.491 53.8134C122.14 53.4193 122.029 52.9671 122.029 51.9345C122.029 50.7237 122.107 50.4964 122.742 49.86C123.593 49.0068 124.649 48.7275 127.05 48.7201C128.702 48.715 128.838 48.6779 128.838 48.2364C128.838 47.6509 128.427 46.8439 127.935 46.4655C127.734 46.3105 127.023 46.1802 126.357 46.1763C125.164 46.1691 125.131 46.1871 124.315 47.326C123.442 48.5451 123.09 48.7038 122.524 48.1357C122.021 47.6319 122.413 46.4563 123.385 45.5521C124.843 44.1955 128.001 44.217 129.5 45.594L130.33 46.3565L130.489 49.792C130.576 51.6813 130.657 53.2585 130.667 53.2967C130.677 53.3349 131.282 53.3349 132.012 53.2967L133.339 53.2272L133.401 47.7365L133.463 42.2455L132.891 42.1016C132.168 41.9195 131.747 41.42 131.925 40.9542C132.036 40.6665 132.381 40.6073 133.625 40.6619L135.186 40.7304L135.301 46.9767ZM117.935 43.5989L118.047 44.759L119.321 44.8275C120.224 44.8761 120.669 45.0124 120.846 45.2945C121.219 45.8911 120.794 46.1749 119.292 46.3301L117.99 46.4651V49.6559C117.99 52.2483 118.058 52.9153 118.352 53.2108C118.967 53.8271 119.229 53.6787 120.088 52.2268C120.555 51.4363 120.905 51.368 121.297 51.9903C121.627 52.5154 121.288 53.5434 120.535 54.2983C119.592 55.2434 118.077 55.2413 117.018 54.2932L116.271 53.6234L116.109 50.3011C116.02 48.4738 115.939 46.8645 115.93 46.7247C115.92 46.5849 115.49 46.3042 114.974 46.101C114.133 45.7696 114.062 45.6824 114.29 45.2559C114.458 44.9402 114.774 44.7803 115.228 44.7803C115.764 44.7803 115.912 44.6776 115.912 44.3059C115.912 43.2293 117.13 41.7521 117.618 42.2354C117.731 42.3474 117.874 42.9609 117.935 43.5989ZM86.4512 45.3281C89.5258 47.1346 89.4268 52.4441 86.2839 54.2916C85.1986 54.9296 84.9558 54.981 83.4296 54.8953C81.4233 54.7826 80.2165 54.0754 79.2713 52.4582C78.5839 51.2824 78.4383 49.2239 78.9389 47.765C79.2905 46.7405 80.7529 45.2445 81.7891 44.8493C83.0007 44.3871 85.2413 44.6174 86.4512 45.3281ZM95.3621 45.2013C96.0241 45.6919 96.035 45.6923 96.1783 45.2394C96.3623 44.6581 96.6335 44.6593 97.2158 45.2432C97.7878 45.8166 97.8317 47.2345 97.2955 47.8284C96.765 48.4162 96.4696 48.3574 96.0262 47.5757C95.4637 46.5842 94.575 46.0936 93.3757 46.1117C92.1251 46.1307 91.3918 46.6856 91.4922 47.537C91.5688 48.1887 92.075 48.4204 94.792 49.0466C96.9742 49.5495 97.5621 50.1398 97.5621 51.8288C97.5621 52.8968 97.4631 53.1847 96.8892 53.7852C96.5192 54.1726 95.8584 54.6079 95.4207 54.7525C94.2828 55.1291 92.2596 54.9088 91.4682 54.3223L90.8131 53.8366L90.5571 54.3996C89.9891 55.6493 89.313 54.644 89.4143 52.7005C89.4748 51.5374 89.5452 51.3671 89.9911 51.3034C90.3607 51.2507 90.6432 51.4541 91.0298 52.0509C91.9743 53.5093 94.205 53.9178 95.3559 52.8431C96.5026 51.7718 95.7254 50.9667 93.0611 50.4659C91.0157 50.0815 90.149 49.6309 89.6484 48.6923C89.2947 48.0286 89.4335 46.8034 89.9524 46.0092C90.8851 44.582 93.916 44.1293 95.3621 45.2013ZM106.269 44.7905C108.448 45.3973 109.743 47.9735 109.271 50.7598C108.788 53.6075 107.105 55.0997 104.583 54.9169C103.644 54.8486 102.985 54.6387 102.315 54.1944L101.371 53.5679V55.1763V56.7849L102.121 56.8576C102.748 56.9182 102.871 57.0249 102.871 57.5086V58.0871H100.474C98.2019 58.0871 98.0667 58.06 97.8852 57.5687C97.7218 57.1258 97.7853 57.0304 98.3206 56.9131C98.6652 56.8374 99.077 56.7356 99.2355 56.6865C99.455 56.6187 99.5241 55.3758 99.5241 51.4987C99.5241 46.6271 99.5044 46.4003 99.0813 46.4003C97.9258 46.4003 97.4538 45.5033 98.3547 45.0198C99.5121 44.3989 101.371 44.928 101.371 45.8786C101.371 46.1834 101.463 46.1621 101.892 45.7588C103.041 44.6762 104.611 44.3288 106.269 44.7905ZM144.365 45.2096C144.795 45.4764 145.272 45.9677 145.423 46.3014C145.575 46.6354 145.765 48.3607 145.846 50.1357L145.992 53.3631L147.398 53.2953L148.804 53.2272L148.868 49.8522L148.932 46.4771L148.003 46.198C146.52 45.7527 146.906 44.7778 148.562 44.7836C150.05 44.7884 150.536 44.9935 150.536 45.6174C150.536 46.3151 150.566 46.3107 151.451 45.482C152.613 44.3941 154.46 44.2346 154.46 45.2223C154.46 45.7789 154.27 45.9043 152.912 46.2475C151.189 46.6831 150.897 47.2822 150.805 50.5668L150.728 53.3126L151.613 53.3858C152.383 53.4492 152.498 53.5334 152.498 54.0372V54.6158L148.92 54.682C144.725 54.7597 144.362 54.6993 144.159 53.8889C144.032 53.3802 143.975 53.3446 143.797 53.6625C143.421 54.3358 141.86 54.9629 140.562 54.962C138.349 54.9604 136.946 53.4751 137.22 51.424C137.466 49.5867 139.002 48.7272 142.053 48.7196L144.073 48.7145V48.0517C144.073 47.6444 143.838 47.154 143.464 46.7789C142.958 46.2716 142.647 46.1688 141.619 46.1688C140.43 46.1688 140.355 46.2066 139.669 47.1524C139.278 47.6935 138.87 48.2901 138.764 48.4782C138.469 49.001 137.61 48.1223 137.61 47.2982C137.61 46.4146 138.787 45.1168 139.865 44.8122C141.18 44.441 143.448 44.6412 144.365 45.2096ZM112.777 44.9208C113.09 45.0409 113.143 45.609 113.143 48.855C113.143 52.9252 113.078 52.6734 114.395 53.757C115.313 54.5121 114.548 54.7812 111.758 54.684C109.935 54.6206 109.791 54.5794 109.723 54.1055C109.665 53.6975 109.804 53.5554 110.416 53.3966L111.181 53.1978V49.7411V46.2846L110.43 46.2121C109.875 46.1582 109.68 46.0263 109.68 45.7028C109.68 45.4628 109.862 45.1601 110.084 45.0302C110.531 44.7692 112.207 44.7012 112.777 44.9208ZM82.0786 46.6053C80.7943 47.3903 80.2719 49.3178 80.822 51.2409C81.5094 53.644 84.5541 54.2504 86.0515 52.2821C87.2967 50.6453 86.9212 47.5676 85.3597 46.6129C84.4387 46.0499 82.9924 46.0464 82.0786 46.6053ZM102.952 46.5206C102.615 46.7039 102.108 47.3336 101.825 47.9198C101.407 48.7853 101.335 49.2301 101.444 50.2828C101.597 51.7688 102.096 52.5716 103.266 53.2143C103.996 53.6151 104.192 53.632 105.064 53.37C107.008 52.7861 107.887 51.0475 107.382 48.7853C106.889 46.578 104.804 45.5118 102.952 46.5206ZM124.435 50.7795C123.648 51.5686 123.578 52.2347 124.216 52.8743C125.657 54.3189 128.608 52.9891 128.608 50.8952V50.103H126.859C125.233 50.103 125.062 50.1509 124.435 50.7795ZM140.166 50.5085C139.076 51.0662 138.849 51.5064 139.206 52.3701C139.557 53.2198 140.551 53.6806 141.605 53.4823C142.741 53.2684 144.073 51.7036 144.073 50.5812C144.073 50.1451 143.935 50.103 142.515 50.1035C141.487 50.1037 140.687 50.2417 140.166 50.5085Z" fill="#AF2F31"/>
</svg>
