<svg width="388" height="150" viewBox="0 0 388 150" fill="none" xmlns="http://www.w3.org/2000/svg">
<path fill-rule="evenodd" clip-rule="evenodd" d="M122.696 27.1505C122.497 42.0835 122.334 64.9841 122.334 78.0401C122.334 103.561 122.132 106.098 119.317 115.941C116.762 124.877 112.578 132.406 107.04 138.032C102.559 142.585 100.847 143.626 88.8965 149.066C87.8704 149.533 119.272 149.651 213.877 149.535L340.227 149.379L345.161 147.947C355.357 144.987 362.897 140.604 369.871 133.581C379.782 123.601 385.443 111.19 386.569 96.978C386.844 93.5027 387.075 70.3236 387.082 45.4692L387.095 0.279121L255.076 0.13956L123.058 0L122.696 27.1505ZM45.592 2.19945C36.1023 4.12363 26.8455 8.94066 19.5945 15.728C10.8333 23.9297 5.55942 32.8286 1.8895 45.6044L0.469224 50.5494L0.234612 99.8626L0 149.176H34.7949C72.8399 149.176 73.5547 149.127 83.1222 145.885C99.8904 140.204 109.853 128.921 115.112 109.656L116.547 104.396L116.726 52.8846L116.905 1.37363L83.0296 1.42527C57.3845 1.46429 48.2895 1.6522 45.592 2.19945ZM187.017 12.8736C193.635 13.2324 196.214 13.6016 198.683 14.5429C209.212 18.5582 213.13 28.1159 209.61 41.2044C208.383 45.7681 204.118 50.1692 199.211 51.9363L195.783 53.1709L198.389 54.3972C203.06 56.5961 203.651 57.6297 207.965 71.1538C211.247 81.4434 211.639 82.1429 214.128 82.1429C216.296 82.1429 218.879 83.022 219.476 83.9632C220.045 84.8604 219.996 87.7434 219.396 88.6945C218.243 90.5192 204.864 90.6022 203.247 88.7939C202.813 88.3088 200.812 82.5962 198.801 76.0989C194.79 63.144 193.463 60.3027 190.596 58.5264C188.02 56.9308 179.948 55.9972 174.409 56.6549L170.298 57.1429L170.15 68.8863C170.056 76.3698 170.207 80.8775 170.567 81.3132C170.879 81.6885 172.905 82.1231 175.07 82.2786C179.725 82.6121 181.321 83.8802 180.751 86.7929C180.167 89.7742 179.834 89.8352 164.195 89.8352C149.946 89.8352 149.796 89.8231 148.951 88.6137C147.76 86.9093 147.888 84.7022 149.249 83.4643C150.092 82.6972 151.516 82.3439 154.571 82.1429C158.45 81.8874 158.769 81.772 159.121 80.4945C159.616 78.7005 159.616 24.0451 159.121 22.2527C158.768 20.9736 158.446 20.8582 154.442 20.5725C150.825 20.3143 149.979 20.0643 149.119 19.0005C147.719 17.267 147.838 15.3198 149.443 13.7115L150.789 12.3626L164.655 12.3879C172.281 12.4016 182.344 12.6203 187.017 12.8736ZM292.996 13.4264C293.893 14.3258 294.373 21.0989 294.417 33.4874L294.456 44.4473L296.049 42.2786C299.534 37.5368 306.407 34.3192 312.983 34.35C316.05 34.3648 321.884 35.7357 324.917 37.1544C333.594 41.2143 338.831 52.2071 338.104 64.8352C337.577 73.9709 335.64 79.2906 331.077 84.1264C326.024 89.4819 319.501 91.8632 311.449 91.2934C304.766 90.8203 301.946 89.6939 298.285 86.0363C296.595 84.3483 294.857 82.3945 294.423 81.6945C293.683 80.5022 293.629 80.6434 293.561 83.945C293.439 89.8775 293.504 89.8352 284.609 89.8352C276.067 89.8352 275.27 89.5297 275.27 86.2555C275.27 83.9033 276.88 82.6923 280.007 82.6923C284.416 82.6923 284.042 85.5692 284.033 51.7269C284.028 35.0626 283.843 21.1527 283.622 20.8154C283.4 20.478 281.815 20.0879 280.1 19.9489C276.374 19.6462 275.27 18.8626 275.27 16.5214C275.27 14.3731 276.203 13.078 278.011 12.7137C280.462 12.2198 292.357 12.7857 292.996 13.4264ZM350.02 19.7137C353.788 21.2918 355.498 26.2022 353.35 29.2764C351.496 31.9286 347.345 32.928 345.006 31.2852C340.994 28.4687 341.378 21.9368 345.681 19.8082C347.748 18.7857 347.801 18.7846 350.02 19.7137ZM170.682 21.2637C170.208 21.739 170.024 25.4962 170.024 34.706C170.024 47.3297 170.039 47.4967 171.235 48.1385C172.098 48.6016 174.74 48.6885 180.437 48.4412C192.195 47.9313 196.036 46.4286 198.926 41.2088C200.211 38.8879 200.447 37.8198 200.447 34.3258C200.447 26.8769 196.797 22.2593 190.032 21.15C185.232 20.3626 171.5 20.4434 170.682 21.2637ZM26.8505 33.256C29.1873 34.6841 30.414 37.6104 30.414 41.7582C30.414 48.667 26.0304 54.1209 20.4781 54.1209C14.421 54.1209 11.1994 45.2758 14.695 38.2445C17.421 32.761 22.5776 30.6445 26.8505 33.256ZM98.0617 33.7753C102.401 36.4269 104.956 42.8148 103.729 47.9429C102.013 55.1137 95.2135 56.7121 90.0965 51.1478C87.9625 48.8275 86.1514 44.5264 86.159 41.7956C86.1656 39.339 87.4505 36.2297 89.1723 34.5038C90.7208 32.9516 91.3605 32.6929 93.6381 32.6945C95.3122 32.6956 96.9501 33.0956 98.0617 33.7753ZM229.301 37.039L230.596 38.0896L230.872 57.2313C231.109 73.6385 231.278 76.6093 232.053 78.022C233.064 79.8626 234.921 81.6917 236.726 82.6236C238.186 83.3769 246.168 83.4428 248.072 82.717C250.576 81.7626 253.708 78.3736 255.322 74.8692L256.907 71.4286L257.079 57.8291L257.251 44.2302L255.751 43.6588C254.926 43.344 253.898 43.2231 253.465 43.3896C252.184 43.8819 248.474 42.6291 247.872 41.5011C247.012 39.8901 247.206 38.2951 248.411 37.0879C249.393 36.1033 250.232 35.9896 256.496 35.9967C264.798 36.0055 265.687 36.194 266.43 38.1016C266.775 38.9885 267.061 47.8088 267.159 60.5973C267.341 84.0615 267.08 82.6687 271.296 82.6841L273.626 82.6923V86.1846V89.6769L269.378 90.0258C264.829 90.3994 259.692 89.8247 258.701 88.8313C258.367 88.4967 257.95 86.5456 257.775 84.4962L257.455 80.7692L255.952 83.333C254.101 86.4885 250.764 89.422 248.013 90.3115C242.919 91.9582 233.657 91.5775 229.78 89.5621C227.463 88.3571 224.353 84.9709 222.808 81.9709L221.34 79.1209L221.035 61.7203C220.866 52.1505 220.577 44.1687 220.392 43.9835C220.207 43.7984 218.727 43.5016 217.103 43.3242C213.053 42.8808 211.684 41.9346 211.684 39.5791C211.684 36.4835 212.977 35.989 221.064 35.989C227.083 35.989 228.18 36.1286 229.301 37.039ZM354.281 37.039L355.576 38.0885L355.737 59.6769C355.834 72.617 356.112 81.5236 356.432 81.9099C356.726 82.2643 358.236 82.6769 359.789 82.8264C362.905 83.1264 364.072 84.144 364.072 86.5582C364.072 87.3604 363.616 88.4308 363.057 88.9368C362.163 89.7484 360.631 89.8396 350.06 89.7088L338.076 89.5604L337.286 88.1489C335.561 85.0681 337.761 82.6923 342.336 82.6923C343.618 82.6923 344.963 82.3956 345.325 82.033C345.81 81.5467 345.983 76.5901 345.983 63.144C345.983 42.4253 346.275 43.6577 341.273 43.2423C339.031 43.056 338.071 42.7022 337.469 41.8412C336.351 40.2412 336.465 38.3868 337.761 37.0879C338.743 36.1027 339.588 35.989 345.922 35.989C352.06 35.989 353.157 36.1269 354.281 37.039ZM304.049 43.8868C296.812 47.3022 293.503 54.1412 294.047 64.5599C294.509 73.4071 297.736 79.3297 303.682 82.2429C307.596 84.1604 313.935 84.0407 318.15 81.9692C321.898 80.1275 324.698 77.0214 326.375 72.8456C327.421 70.2423 327.608 68.7445 327.613 62.9121C327.62 56.2813 327.557 55.9121 325.818 52.2313C322.574 45.3637 318.196 42.5775 310.666 42.5879C307.745 42.5918 306.114 42.9121 304.049 43.8868ZM11.3853 52.0104C13.7385 56.6335 15.6362 59.6093 17.0461 60.8863L19.1675 62.8066L25.8358 59.4253L32.5047 56.044L37.8153 56.0467C42.513 56.0489 43.4471 56.2192 45.9165 57.5225C47.4514 58.333 49.9833 60.3956 51.5428 62.106C54.4985 65.3472 57.452 69.8885 56.9394 70.4027C56.7761 70.5665 54.9677 69.3159 52.9209 67.6236C46.5167 62.3286 42.1391 60.8874 37.6645 62.6C36.3248 63.1132 34.4951 64.3698 33.5994 65.3923C31.6682 67.5967 28.8364 73.372 28.325 76.1467C27.4277 81.0214 31.159 90.6885 36.8368 98.2011C38.3727 100.234 43.3763 105.513 47.9557 109.934C53.4016 115.191 55.8069 117.841 54.9107 117.594C51.5149 116.659 42.1556 111.558 37.8767 108.309C28.5114 101.201 19.1768 89.7297 14.6435 79.7582C10.2122 70.011 7.01533 57.6143 6.36248 47.6462C6.06866 43.1527 6.10429 42.9247 6.94681 43.956C7.44071 44.5604 9.4382 48.1846 11.3853 52.0104ZM111.024 46.2912C109.431 65.089 103.826 81.0291 94.4077 93.5511C90.034 99.3665 81.9278 107.077 76.1387 110.93C71.5166 114.005 60.9596 119.132 60.3923 118.576C60.2415 118.429 61.3516 117.298 62.859 116.063C67.8083 112.007 79.3504 100.069 81.68 96.5956C84.8128 91.9253 87.6352 86.1516 88.3659 82.9187C89.6289 77.3302 87.6676 70.622 83.4199 66.0033C80.7153 63.0621 78.2513 62.1066 74.5128 62.5505C71.1932 62.9445 68.1098 64.7005 63.0086 69.1016L59.1266 72.45L60.9783 68.9176C63.6094 63.8973 69.171 58.4099 72.8733 57.1819C79.0741 55.1242 86.0039 56.4115 93.5948 61.0302C96.8843 63.0319 97.8611 63.3961 98.7146 62.9385C100.224 62.1286 104.204 55.9033 107.601 49.0385C109.209 45.7901 110.697 43.1319 110.908 43.1319C111.119 43.1319 111.172 44.5538 111.024 46.2912ZM69.1086 74.1478C69.9533 74.5857 71.4218 75.8313 72.3717 76.9154C78.1345 83.4945 76.5476 91.6022 67.742 100.57C65.358 102.999 62.6436 105.522 61.7106 106.178L60.0146 107.371L56.5349 105.334C49.1019 100.982 41.7549 91.644 41.7549 86.5483C41.7549 81.883 44.8586 76.5451 48.6085 74.761C51.2802 73.4907 53.6845 74.3341 56.4877 77.5264L58.6393 79.9764L59.8288 78.0467C62.3991 73.8786 65.818 72.4418 69.1086 74.1478ZM163.446 97.1593C165.463 98.1275 165.132 98.806 162.213 99.6846L159.609 100.469V105.591V110.714H167.831H176.054V105.527V100.34L173.724 99.8775C171.737 99.4835 171.394 99.2165 171.394 98.0593V96.7033L178.383 96.5494L185.372 96.3956V97.9901C185.372 99.4154 185.148 99.6209 183.263 99.9231L181.153 100.261L180.808 105.527C180.618 108.424 180.619 114.226 180.809 118.421L181.155 126.049L182.853 126.412C184.636 126.793 185.921 127.588 185.921 128.31C185.921 129.2 182.309 129.945 178.028 129.937C172.91 129.929 171.12 129.566 171.12 128.538C171.12 127.536 173.29 126.099 174.806 126.099C176.021 126.099 176.054 125.955 176.054 120.604V115.11H167.831H159.609V120.604C159.609 125.173 159.75 126.099 160.449 126.099C160.911 126.099 162.206 126.487 163.327 126.96L165.365 127.822L164.07 128.883C162.987 129.773 161.901 129.945 157.4 129.945C151.127 129.945 150.29 129.718 150.29 128.012C150.29 126.962 150.666 126.681 152.483 126.374L154.676 126.002V113.197C154.676 99.3049 154.771 99.7253 151.616 99.7253C150.513 99.7253 150.29 99.4522 150.29 98.1044C150.29 96.5231 150.368 96.478 153.442 96.2599C157.579 95.967 161.741 96.3412 163.446 97.1593ZM268.484 97.2753C269.214 98.3934 269.274 98.9407 268.782 100.023C267.911 101.94 265.083 101.926 264.208 100C262.696 96.6742 266.504 94.2472 268.484 97.2753ZM321.316 111.534L321.59 126.364L323.228 126.648C325.008 126.956 325.789 128.653 324.521 129.459C324.115 129.717 320.07 129.932 315.533 129.937C306.923 129.946 305.967 129.705 305.967 127.535C305.967 126.522 305.858 126.545 304.46 127.852C302.247 129.921 300.853 130.494 298.038 130.494C295.07 130.494 292.42 129.482 290.893 127.765C290.06 126.83 289.797 125.756 289.797 123.304C289.797 120.43 289.982 119.89 291.489 118.379C293.51 116.353 296.017 115.69 301.719 115.673C305.643 115.66 305.967 115.573 305.967 114.524C305.967 113.134 304.99 111.218 303.822 110.32C303.344 109.952 301.657 109.642 300.074 109.633C297.241 109.616 297.164 109.659 295.226 112.363C293.151 115.257 292.317 115.634 290.971 114.285C289.777 113.089 290.708 110.298 293.016 108.151C296.48 104.93 303.98 104.981 307.538 108.251L309.51 110.061L309.887 118.218C310.095 122.703 310.285 126.448 310.309 126.538C310.333 126.629 311.771 126.629 313.505 126.538L316.656 126.374L316.803 113.337L316.95 100.301L315.592 99.9588C313.873 99.5264 312.875 98.3406 313.298 97.2346C313.56 96.5516 314.379 96.411 317.334 96.5406L321.042 96.7033L321.316 111.534ZM280.075 103.514L280.339 106.268L283.366 106.431C285.51 106.546 286.567 106.87 286.987 107.54C287.874 108.956 286.863 109.63 283.297 109.998L280.204 110.319V117.894C280.204 124.049 280.366 125.633 281.065 126.335C282.525 127.798 283.147 127.446 285.186 123.998C286.296 122.121 287.127 121.959 288.057 123.437C288.841 124.684 288.036 127.124 286.248 128.916C284.009 131.16 280.411 131.155 277.897 128.904L276.122 127.314L275.737 119.426C275.525 115.088 275.334 111.267 275.312 110.935C275.289 110.603 274.268 109.937 273.042 109.454C271.044 108.668 270.876 108.46 271.417 107.448C271.818 106.698 272.566 106.319 273.645 106.319C274.918 106.319 275.27 106.075 275.27 105.192C275.27 102.636 278.161 99.1291 279.322 100.276C279.59 100.542 279.929 101.999 280.075 103.514ZM205.306 107.619C212.607 111.908 212.372 124.514 204.908 128.901C202.331 130.415 201.754 130.537 198.13 130.334C193.365 130.066 190.499 128.387 188.255 124.548C186.622 121.756 186.276 116.869 187.465 113.405C188.3 110.973 191.773 107.421 194.234 106.482C197.111 105.385 202.432 105.932 205.306 107.619ZM226.467 107.318C228.039 108.483 228.065 108.484 228.406 107.409C228.843 106.029 229.487 106.031 230.87 107.418C232.228 108.779 232.332 112.146 231.059 113.555C229.799 114.951 229.097 114.812 228.044 112.955C226.709 110.602 224.598 109.437 221.75 109.48C218.78 109.525 217.038 110.842 217.277 112.864C217.459 114.411 218.661 114.961 225.113 116.448C230.296 117.642 231.692 119.043 231.692 123.053C231.692 125.589 231.457 126.273 230.094 127.698C229.215 128.618 227.646 129.652 226.607 129.995C223.904 130.889 219.1 130.366 217.22 128.974L215.664 127.82L215.056 129.157C213.707 132.124 212.102 129.737 212.342 125.123C212.486 122.362 212.653 121.957 213.712 121.806C214.59 121.681 215.261 122.164 216.179 123.581C218.422 127.043 223.719 128.013 226.453 125.462C229.176 122.918 227.33 121.007 221.003 119.818C216.146 118.905 214.087 117.835 212.898 115.607C212.058 114.031 212.388 111.122 213.62 109.236C215.835 105.848 223.033 104.773 226.467 107.318ZM252.368 106.343C257.544 107.784 260.62 113.9 259.498 120.515C258.352 127.276 254.355 130.819 248.366 130.385C246.135 130.223 244.569 129.725 242.978 128.67L240.736 127.182V131.001V134.82L242.518 134.993C244.007 135.137 244.3 135.39 244.3 136.538V137.912H238.607C233.211 137.912 232.89 137.848 232.459 136.681C232.071 135.63 232.222 135.403 233.493 135.125C234.312 134.945 235.289 134.703 235.666 134.587C236.187 134.426 236.351 131.475 236.351 122.27C236.351 110.703 236.305 110.165 235.3 110.165C232.556 110.165 231.435 108.035 233.574 106.887C236.323 105.413 240.736 106.669 240.736 108.926C240.736 109.65 240.957 109.599 241.974 108.642C244.703 106.071 248.431 105.247 252.368 106.343ZM342.84 107.338C343.862 107.971 344.993 109.138 345.353 109.93C345.714 110.723 346.165 114.819 346.356 119.034L346.704 126.696L350.044 126.535L353.383 126.374L353.534 118.36L353.686 110.347L351.479 109.685C347.959 108.627 348.874 106.313 352.807 106.326C356.342 106.338 357.494 106.825 357.494 108.306C357.494 109.963 357.567 109.952 359.668 107.985C362.427 105.402 366.813 105.023 366.813 107.368C366.813 108.69 366.363 108.987 363.139 109.802C359.047 110.836 358.352 112.259 358.135 120.057L357.952 126.576L360.053 126.75C361.882 126.901 362.154 127.101 362.154 128.297V129.67L353.657 129.827C343.694 130.012 342.833 129.869 342.351 127.944C342.049 126.737 341.913 126.652 341.491 127.407C340.599 129.005 336.891 130.494 333.808 130.492C328.553 130.488 325.221 126.962 325.872 122.092C326.456 117.73 330.103 115.69 337.349 115.671L342.146 115.659V114.086C342.146 113.119 341.589 111.954 340.701 111.064C339.499 109.859 338.761 109.615 336.319 109.615C333.495 109.615 333.317 109.705 331.689 111.951C330.758 113.235 329.79 114.652 329.538 115.098C328.838 116.34 326.797 114.253 326.797 112.297C326.797 110.199 329.594 107.118 332.153 106.395C335.275 105.513 340.661 105.988 342.84 107.338ZM267.825 106.652C268.568 106.937 268.693 108.286 268.693 115.993C268.693 125.657 268.54 125.059 271.668 127.631C273.848 129.424 272.03 130.063 265.404 129.832C261.075 129.682 260.732 129.584 260.572 128.459C260.435 127.49 260.764 127.153 262.217 126.776L264.033 126.304V118.097V109.89L262.252 109.718C260.932 109.59 260.47 109.277 260.47 108.509C260.47 107.939 260.902 107.22 261.429 106.912C262.491 106.292 266.47 106.131 267.825 106.652ZM194.921 110.652C191.871 112.515 190.631 117.092 191.937 121.658C193.57 127.363 200.8 128.803 204.356 124.13C207.314 120.243 206.422 112.936 202.713 110.67C200.526 109.333 197.092 109.325 194.921 110.652ZM244.491 110.451C243.692 110.886 242.487 112.381 241.815 113.773C240.823 115.827 240.653 116.884 240.91 119.383C241.273 122.911 242.458 124.817 245.238 126.343C246.971 127.294 247.437 127.335 249.509 126.713C254.125 125.326 256.212 121.198 255.013 115.827C253.842 110.587 248.89 108.055 244.491 110.451ZM295.51 120.562C293.641 122.436 293.475 124.017 294.99 125.536C298.412 128.965 305.419 125.808 305.419 120.837V118.956H301.266C297.406 118.956 296.999 119.07 295.51 120.562ZM332.868 119.919C330.28 121.243 329.741 122.288 330.588 124.338C331.422 126.356 333.781 127.45 336.285 126.979C338.984 126.471 342.146 122.756 342.146 120.091C342.146 119.056 341.82 118.956 338.446 118.957C336.006 118.958 334.106 119.285 332.868 119.919Z" fill="white"/>
</svg>
